<?xml version="1.0" encoding="UTF-8"?>
<svg xmlns="http://www.w3.org/2000/svg" style="stroke-dasharray:none; shape-rendering:auto; font-family:'Arial'; text-rendering:auto; fill-opacity:1; color-interpolation:auto; color-rendering:auto; font-size:12; fill:black; stroke:black; image-rendering:auto; stroke-miterlimit:10; stroke-linecap:square; stroke-linejoin:miter; font-style:normal; stroke-width:1; stroke-dashoffset:0; font-weight:normal; stroke-opacity:1;" contentScriptType="text/ecmascript" preserveAspectRatio="xMidYMid meet" zoomAndPan="magnify" version="1.0" contentStyleType="text/css" xml:xlink="http://www.w3.org/1999/xlink" width="1311" height="661"><rect x="10" y="10" width="1301" height="651" ry="0" rx="0" style="stroke:#000000; fill:#FFFFFF" /><rect x="40" y="172" width="1271" height="162" ry="0" rx="0" style="stroke:#000000; fill:#ADC9AC" /><g componentSequence="5"><text x="-253" y="47" transform="rotate(270)" text-anchor="middle" style="font-weight:bold;font-size:10px;stroke:none; fill:#434343"><tspan dy="14" x="-253">Diretoria</tspan></text></g><rect x="40" y="496" width="1271" height="165" ry="0" rx="0" style="stroke:#000000; fill:#FF8080" /><g componentSequence="4"><text x="-578" y="47" transform="rotate(270)" text-anchor="middle" style="font-weight:bold;font-size:10px;stroke:none; fill:#434343"><tspan dy="14" x="-578">Dir. Financeiro</tspan></text></g><rect x="40" y="334" width="1271" height="162" ry="0" rx="0" style="stroke:#000000; fill:#82B0B7" /><g componentSequence="3"><text x="-415" y="47" transform="rotate(270)" text-anchor="middle" style="font-weight:bold;font-size:10px;stroke:none; fill:#434343"><tspan dy="14" x="-415">Contas a Pagar</tspan></text></g><rect x="40" y="10" width="1271" height="162" ry="0" rx="0" style="stroke:#000000; fill:#808000" /><g componentSequence="2"><text x="-91" y="47" transform="rotate(270)" text-anchor="middle" style="font-weight:bold;font-size:10px;stroke:none; fill:#434343"><tspan dy="14" x="-91">Equipe de Marketing</tspan></text></g><g componentSequence="1"><text x="-335" y="17" transform="rotate(270)" text-anchor="middle" style="font-weight:bold;font-size:10px;stroke:none; fill:#434343"><tspan dy="14" x="-335">Pool</tspan></text></g><g sequence="4"><ellipse cx="147" cy="118" rx="17" ry="17" stroke-width="1" style="fill:url(#linearGradient66FF6696FF96B6FFB6_1971985060);" stroke="336633" /></g><g sequence="11"><rect x="230" y="227" width="106" height="56" ry="5" rx="5" style="fill:url(#linearGradientF8FBFEEDF5FCDEEDFAD4E7F8E2E5E9_2068703845);" stroke="191970" /></g><g componentSequence="11"><text x="283" y="244" text-anchor="middle" style="font-weight:bold;font-size:10px;stroke:none; fill:#333399"><tspan dy="14" x="283">Aprovação</tspan></text></g><g sequence="13"><polygon points=" 470 241 500 211 530 241 500 271 470 241" style="fill:url(#linearGradientFAFBFCFFFFCC_2138206676);" stroke="000000" /></g><g componentSequence="13"><text x="500" y="274" text-anchor="middle" style="font-weight:bold;font-size:10px;stroke:none; fill:#333399"><tspan dy="14" x="500">Aprovar</tspan></text></g><g sequence="15"><rect x="450" y="382" width="106" height="70" ry="5" rx="5" style="fill:url(#linearGradientF8FBFEEDF5FCDEEDFAD4E7F8E2E5E9_980475998);" stroke="191970" /></g><g componentSequence="15"><text x="503" y="397" text-anchor="middle" style="font-weight:bold;font-size:10px;stroke:none; fill:#333399"><tspan dy="14" x="503">Agendar</tspan><tspan dy="14" x="503">Pagamento</tspan></text></g><g sequence="17"><polygon points=" 650 396 680 366 710 396 680 426 650 396" style="fill:url(#linearGradientFAFBFCFFFFCC_520786574);" stroke="000000" /></g><g componentSequence="17"><text x="680" y="436" text-anchor="middle" style="font-weight:bold;font-size:10px;stroke:none; fill:#333399"><tspan dy="14" x="680">Verificar</tspan><tspan dy="14" x="680">Dados</tspan><tspan dy="14" x="680">Bancá...</tspan></text></g><g sequence="19"><rect x="630" y="546" width="106" height="70" ry="5" rx="5" style="fill:url(#linearGradientF8FBFEEDF5FCDEEDFAD4E7F8E2E5E9_192961992);" stroke="191970" /></g><g componentSequence="19"><text x="683" y="561" text-anchor="middle" style="font-weight:bold;font-size:10px;stroke:none; fill:#333399"><tspan dy="14" x="683">Realizar</tspan><tspan dy="14" x="683">Pagamento</tspan></text></g><g sequence="21"><rect x="560" y="74" width="106" height="70" ry="5" rx="5" style="fill:url(#linearGradientF8FBFEEDF5FCDEEDFAD4E7F8E2E5E9_1729130941);" stroke="191970" /></g><g componentSequence="21"><text x="613" y="89" text-anchor="middle" style="font-weight:bold;font-size:10px;stroke:none; fill:#333399"><tspan dy="14" x="613">Solicitação</tspan><tspan dy="14" x="613">Reprovada</tspan></text></g><g sequence="25"><polygon points=" 980 560 1010 530 1040 560 1010 590 980 560" style="fill:url(#linearGradientFAFBFCFFFFCC_1516183313);" stroke="000000" /></g><g componentSequence="25"><text x="1010" y="600" text-anchor="middle" style="font-weight:bold;font-size:10px;stroke:none; fill:#333399"><tspan dy="14" x="1010">Verificar</tspan><tspan dy="14" x="1010">Obrigato</tspan><tspan dy="14" x="1010">ried...</tspan></text></g><g sequence="27"><rect x="960" y="51" width="106" height="70" ry="5" rx="5" style="fill:url(#linearGradientF8FBFEEDF5FCDEEDFAD4E7F8E2E5E9_285894710);" stroke="191970" /></g><g componentSequence="27"><text x="1013" y="66" text-anchor="middle" style="font-weight:bold;font-size:10px;stroke:none; fill:#333399"><tspan dy="14" x="1013">Notificar Equipe</tspan><tspan dy="14" x="1013">de Marketing</tspan></text></g><g sequence="29"><rect x="790" y="51" width="106" height="84" ry="5" rx="5" style="fill:url(#linearGradientF8FBFEEDF5FCDEEDFAD4E7F8E2E5E9_409799106);" stroke="191970" /></g><g componentSequence="29"><text x="843" y="66" text-anchor="middle" style="font-weight:bold;font-size:10px;stroke:none; fill:#333399"><tspan dy="14" x="843">Anexar Nota</tspan><tspan dy="14" x="843">Fiscal ou Boleto</tspan></text></g><g sequence="32"><rect x="1100" y="51" width="106" height="84" ry="5" rx="5" style="fill:url(#linearGradientF8FBFEEDF5FCDEEDFAD4E7F8E2E5E9_2081693419);" stroke="191970" /></g><g componentSequence="32"><text x="1153" y="66" text-anchor="middle" style="font-weight:bold;font-size:10px;stroke:none; fill:#333399"><tspan dy="14" x="1153">Solicitação de</tspan><tspan dy="14" x="1153">Pagamento</tspan><tspan dy="14" x="1153">Finalizada</tspan></text></g><g sequence="34"><ellipse cx="1257" cy="92" rx="17" ry="17" stroke-width="3" style="fill:url(#linearGradientFF6666FF9696FFB6B6_1578181103);" stroke="993333" /></g><rect x="90" y="20" width="105" height="55" ry="5" rx="5" style="stroke:none; fill:#FFFFE0" /><g componentSequence="7"><text x="100" y="43" text-anchor="left" style="font-weight:bold;font-size:10px;stroke:none; fill:#000000"><tspan dy="14" x="100">Informações</tspan><tspan dy="14" x="100">da Solicitação</tspan></text></g><path style="fill:none; stroke-width:1; stroke:#000000;" d="M110.0 20.0 L90.0 20.0 L90.0 75.0 L110.0 75.0" /><g componentSequence="12"><text x="157" y="237" style="font-size:10px;font-weight:none;stroke:none; fill:#333399" text-anchor="left" /></g><g componentSequence="14"><text x="413" y="255" style="font-size:10px;font-weight:none;stroke:none; fill:#333399" text-anchor="left" /></g><g componentSequence="16"><text x="511" y="340" style="font-size:10px;font-weight:none;stroke:none; fill:#333399" text-anchor="left" /></g><g componentSequence="18"><text x="613" y="421" style="font-size:10px;font-weight:none;stroke:none; fill:#333399" text-anchor="left" /></g><g componentSequence="20"><text x="692" y="514" style="font-size:10px;font-weight:none;stroke:none; fill:#333399" text-anchor="left" /></g><g componentSequence="22"><text x="622" y="241" style="font-size:10px;font-weight:none;stroke:none; fill:#333399" text-anchor="left" /></g><g componentSequence="23"><text x="372" y="109" style="font-size:10px;font-weight:none;stroke:none; fill:#333399" text-anchor="left" /></g><g componentSequence="24"><text x="770" y="241" style="font-size:10px;font-weight:none;stroke:none; fill:#333399" text-anchor="left" /></g><g componentSequence="26"><text x="868" y="581" style="font-size:10px;font-weight:none;stroke:none; fill:#333399" text-anchor="left" /></g><g componentSequence="28"><text x="1021" y="325" style="font-size:10px;font-weight:none;stroke:none; fill:#333399" text-anchor="left" /></g><g componentSequence="30"><text x="938" y="89" style="font-size:10px;font-weight:none;stroke:none; fill:#333399" text-anchor="left" /></g><g componentSequence="31"><text x="485" y="39" style="font-size:10px;font-weight:none;stroke:none; fill:#333399" text-anchor="left" /></g><g componentSequence="33"><text x="1162" y="414" style="font-size:10px;font-weight:none;stroke:none; fill:#333399" text-anchor="left" /></g><g componentSequence="35"><text x="1233" y="92" style="font-size:10px;font-weight:none;stroke:none; fill:#333399" text-anchor="left" /></g><g componentSequence="8"><text x="155" y="88" style="font-size:10px;font-weight:none;stroke:none; fill:#333399" text-anchor="left" /></g><path style="fill:none; stroke:#000000;stroke-width:1" d="M147.0 136.0 L147.0 255.0 L229.0 255.0" /><polygon style="fill:#000000; stroke:#000000;" points=" 219 250 229 255 219 260 221 255" /><path style="fill:none; stroke:#000000;stroke-dasharray:2" d="M144.0 75.0 L146.0 101.0" /><path style="fill:none; stroke:#000000;stroke-width:1" d="M336.0 255.0 L469.0 255.0" /><polygon style="fill:#000000; stroke:#000000;" points=" 459 250 469 255 459 260 461 255" /><path style="fill:none; stroke:#000000;stroke-width:1" d="M559.0 109.0 L282.0 109.0 L282.0 226.0" /><polygon style="fill:#000000; stroke:#000000;" points=" 287 216 282 226 277 216 282 218" /><path style="fill:none; stroke:#000000;stroke-width:1" d="M843.0 50.0 L843.0 39.0 L597.0 39.0 L282.0 39.0 L282.0 226.0" /><polygon style="fill:#000000; stroke:#000000;" points=" 287 216 282 226 277 216 282 218" /><path style="fill:none; stroke:#000000;stroke-width:1" d="M500.0 299.0 L502.0 381.0" /><polygon style="fill:#000000; stroke:#000000;" points=" 507 371 502 381 497 371 502 373" /><path style="fill:none; stroke:#000000;stroke-width:1" d="M530.0 255.0 L612.0 255.0 L612.0 144.0" /><polygon style="fill:#000000; stroke:#000000;" points=" 607 154 612 144 617 154 612 152" /><path style="fill:none; stroke:#000000;stroke-width:1" d="M556.0 419.0 L649.0 422.0" /><polygon style="fill:#000000; stroke:#000000;" points=" 639 417 649 422 639 427 641 422" /><path style="fill:none; stroke:#000000;stroke-width:1" d="M681.0 482.0 L682.0 545.0" /><polygon style="fill:#000000; stroke:#000000;" points=" 687 535 682 545 677 535 682 537" /><path style="fill:none; stroke:#000000;stroke-width:1" d="M710.0 421.0 L760.0 417.0 L760.0 108.0 L666.0 108.0" /><polygon style="fill:#000000; stroke:#000000;" points=" 676 113 666 108 676 103 674 108" /><path style="fill:none; stroke:#000000;stroke-width:1" d="M736.0 581.0 L979.0 581.0" /><polygon style="fill:#000000; stroke:#000000;" points=" 969 576 979 581 969 586 971 581" /><path style="fill:none; stroke:#000000;stroke-width:1" d="M1010.0 529.0 L1012.0 121.0" /><polygon style="fill:#000000; stroke:#000000;" points=" 1007 131 1012 121 1017 131 1012 129" /><path style="fill:none; stroke:#000000;stroke-width:1" d="M1040.0 581.0 L1152.0 581.0 L1152.0 135.0" /><polygon style="fill:#000000; stroke:#000000;" points=" 1147 145 1152 135 1157 145 1152 143" /><path style="fill:none; stroke:#000000;stroke-width:1" d="M959.0 88.0 L896.0 90.0" /><polygon style="fill:#000000; stroke:#000000;" points=" 906 95 896 90 906 85 904 90" /><path style="fill:none; stroke:#000000;stroke-width:1" d="M1206.0 92.0 L1240.0 92.0" /><polygon style="fill:#000000; stroke:#000000;" points=" 1230 87 1240 92 1230 97 1232 92" /><defs><linearGradient xmlns:xlink="http://www.w3.org/1999/xlink" xlink:href="#linearGradient66FF6696FF96B6FFB6" id="linearGradient66FF6696FF96B6FFB6_1971985060" x1="0" y1="101.0" x2="0" y2="136.0" gradientUnits="userSpaceOnUse" xlink:type="simple" xlink:actuate="onLoad" xlink:show="other" /><linearGradient id="linearGradient66FF6696FF96B6FFB6"><stop style="stop-color:#66FF66;stop-opacity:1;" offset="0.0" id="stop66FF66" /><stop style="stop-color:#96FF96;stop-opacity:1;" offset="0.5" id="stop96FF96" /><stop style="stop-color:#B6FFB6;stop-opacity:1;" offset="1.0" id="stopB6FFB6" /></linearGradient><linearGradient xmlns:xlink="http://www.w3.org/1999/xlink" xlink:href="#linearGradientF8FBFEEDF5FCDEEDFAD4E7F8E2E5E9" id="linearGradientF8FBFEEDF5FCDEEDFAD4E7F8E2E5E9_2068703845" x1="0" y1="227.0" x2="0" y2="333.0" gradientUnits="userSpaceOnUse" xlink:type="simple" xlink:actuate="onLoad" xlink:show="other" /><linearGradient id="linearGradientF8FBFEEDF5FCDEEDFAD4E7F8E2E5E9"><stop style="stop-color:#F8FBFE;stop-opacity:1;" offset="0.0" id="stopF8FBFE" /><stop style="stop-color:#EDF5FC;stop-opacity:1;" offset="0.25" id="stopEDF5FC" /><stop style="stop-color:#DEEDFA;stop-opacity:1;" offset="0.5" id="stopDEEDFA" /><stop style="stop-color:#D4E7F8;stop-opacity:1;" offset="0.75" id="stopD4E7F8" /><stop style="stop-color:#E2E5E9;stop-opacity:1;" offset="1.0" id="stopE2E5E9" /></linearGradient><linearGradient xmlns:xlink="http://www.w3.org/1999/xlink" xlink:href="#linearGradientFAFBFCFFFFCC" id="linearGradientFAFBFCFFFFCC_2138206676" x1="0" y1="211.0" x2="0" y2="271.0" gradientUnits="userSpaceOnUse" xlink:type="simple" xlink:actuate="onLoad" xlink:show="other" /><linearGradient id="linearGradientFAFBFCFFFFCC"><stop style="stop-color:#FAFBFC;stop-opacity:1;" offset="0.0" id="stopFAFBFC" /><stop style="stop-color:#FFFFCC;stop-opacity:1;" offset="1.0" id="stopFFFFCC" /></linearGradient><linearGradient xmlns:xlink="http://www.w3.org/1999/xlink" xlink:href="#linearGradientF8FBFEEDF5FCDEEDFAD4E7F8E2E5E9" id="linearGradientF8FBFEEDF5FCDEEDFAD4E7F8E2E5E9_980475998" x1="0" y1="382.0" x2="0" y2="488.0" gradientUnits="userSpaceOnUse" xlink:type="simple" xlink:actuate="onLoad" xlink:show="other" /><linearGradient xmlns:xlink="http://www.w3.org/1999/xlink" xlink:href="#linearGradientFAFBFCFFFFCC" id="linearGradientFAFBFCFFFFCC_520786574" x1="0" y1="366.0" x2="0" y2="426.0" gradientUnits="userSpaceOnUse" xlink:type="simple" xlink:actuate="onLoad" xlink:show="other" /><linearGradient xmlns:xlink="http://www.w3.org/1999/xlink" xlink:href="#linearGradientF8FBFEEDF5FCDEEDFAD4E7F8E2E5E9" id="linearGradientF8FBFEEDF5FCDEEDFAD4E7F8E2E5E9_192961992" x1="0" y1="546.0" x2="0" y2="652.0" gradientUnits="userSpaceOnUse" xlink:type="simple" xlink:actuate="onLoad" xlink:show="other" /><linearGradient xmlns:xlink="http://www.w3.org/1999/xlink" xlink:href="#linearGradientF8FBFEEDF5FCDEEDFAD4E7F8E2E5E9" id="linearGradientF8FBFEEDF5FCDEEDFAD4E7F8E2E5E9_1729130941" x1="0" y1="74.0" x2="0" y2="180.0" gradientUnits="userSpaceOnUse" xlink:type="simple" xlink:actuate="onLoad" xlink:show="other" /><linearGradient xmlns:xlink="http://www.w3.org/1999/xlink" xlink:href="#linearGradientFAFBFCFFFFCC" id="linearGradientFAFBFCFFFFCC_1516183313" x1="0" y1="530.0" x2="0" y2="590.0" gradientUnits="userSpaceOnUse" xlink:type="simple" xlink:actuate="onLoad" xlink:show="other" /><linearGradient xmlns:xlink="http://www.w3.org/1999/xlink" xlink:href="#linearGradientF8FBFEEDF5FCDEEDFAD4E7F8E2E5E9" id="linearGradientF8FBFEEDF5FCDEEDFAD4E7F8E2E5E9_285894710" x1="0" y1="51.0" x2="0" y2="157.0" gradientUnits="userSpaceOnUse" xlink:type="simple" xlink:actuate="onLoad" xlink:show="other" /><linearGradient xmlns:xlink="http://www.w3.org/1999/xlink" xlink:href="#linearGradientF8FBFEEDF5FCDEEDFAD4E7F8E2E5E9" id="linearGradientF8FBFEEDF5FCDEEDFAD4E7F8E2E5E9_409799106" x1="0" y1="51.0" x2="0" y2="157.0" gradientUnits="userSpaceOnUse" xlink:type="simple" xlink:actuate="onLoad" xlink:show="other" /><linearGradient xmlns:xlink="http://www.w3.org/1999/xlink" xlink:href="#linearGradientF8FBFEEDF5FCDEEDFAD4E7F8E2E5E9" id="linearGradientF8FBFEEDF5FCDEEDFAD4E7F8E2E5E9_2081693419" x1="0" y1="51.0" x2="0" y2="157.0" gradientUnits="userSpaceOnUse" xlink:type="simple" xlink:actuate="onLoad" xlink:show="other" /><linearGradient xmlns:xlink="http://www.w3.org/1999/xlink" xlink:href="#linearGradientFF6666FF9696FFB6B6" id="linearGradientFF6666FF9696FFB6B6_1578181103" x1="0" y1="75.0" x2="0" y2="110.0" gradientUnits="userSpaceOnUse" xlink:type="simple" xlink:actuate="onLoad" xlink:show="other" /><linearGradient id="linearGradientFF6666FF9696FFB6B6"><stop style="stop-color:#FF6666;stop-opacity:1;" offset="0.0" id="stopFF6666" /><stop style="stop-color:#FF9696;stop-opacity:1;" offset="0.5" id="stopFF9696" /><stop style="stop-color:#FFB6B6;stop-opacity:1;" offset="1.0" id="stopFFB6B6" /></linearGradient></defs></svg>
